<svg width="17" height="17" viewBox="0 0 17 17" fill="none" xmlns="http://www.w3.org/2000/svg">
<circle cx="8.5" cy="8.5" r="8.5" fill="white"/>
<path d="M15.8603 4.23331C15.1002 2.9311 14.0692 1.90005 12.7669 1.13998C11.4644 0.379941 10.0426 0 8.50027 0C6.95813 0 5.53586 0.379941 4.2336 1.13998C2.93127 1.89994 1.90022 2.93098 1.1401 4.23331C0.379943 5.53572 0 6.95798 0 8.5C0 10.0421 0.380059 11.4641 1.13998 12.7666C1.90006 14.0688 2.93111 15.0999 4.23345 15.86C5.53586 16.62 6.95802 17 8.50012 17C10.0422 17 11.4645 16.62 12.7669 15.86C14.0691 15.1001 15.1001 14.0688 15.8602 12.7666C16.6201 11.4642 17 10.042 17 8.5C17 6.95783 16.6201 5.53552 15.8603 4.23331ZM12.5066 10.5031C12.6468 10.6432 12.717 10.8095 12.717 11.0014C12.717 11.2004 12.6468 11.3702 12.5066 11.5103L11.5106 12.5066C11.3705 12.6466 11.2007 12.7167 11.0014 12.7167C10.8096 12.7167 10.6434 12.6466 10.5034 12.5066L8.50015 10.5031L6.49682 12.5066C6.35664 12.6466 6.19065 12.7167 5.9988 12.7167C5.79954 12.7167 5.62986 12.6466 5.48965 12.5066L4.49349 11.5103C4.35331 11.3702 4.28322 11.2004 4.28322 11.0014C4.28322 10.8096 4.35335 10.6432 4.49349 10.5031L6.49682 8.49996L4.49349 6.49664C4.35331 6.35662 4.28322 6.19047 4.28322 5.99862C4.28322 5.79936 4.35335 5.62968 4.49349 5.48947L5.48965 4.49347C5.62986 4.35329 5.79954 4.2832 5.9988 4.2832C6.19065 4.2832 6.35664 4.35333 6.49682 4.49347L8.50015 6.49664L10.5034 4.49347C10.6434 4.35329 10.8096 4.2832 11.0014 4.2832C11.2007 4.2832 11.3705 4.35333 11.5106 4.49347L12.5066 5.48947C12.6468 5.62968 12.717 5.79936 12.717 5.99862C12.717 6.19043 12.6468 6.35662 12.5066 6.49664L10.5034 8.49996L12.5066 10.5031Z" fill="#FF0303"/>
<circle cx="8.5" cy="8.5" r="8.5" fill="#949494"/>
<path d="M13.474 3.9512C13.3899 3.86718 13.2903 3.82504 13.1751 3.82504C13.0601 3.82504 12.9605 3.86718 12.8763 3.9512L12.0131 4.80798C11.5394 4.36078 10.997 4.01428 10.3861 3.76863C9.77529 3.52296 9.14647 3.40015 8.50008 3.40015C7.28258 3.40015 6.22013 3.76865 5.31254 4.50583C4.40493 5.24292 3.8073 6.20462 3.51953 7.39118V7.43763C3.51953 7.49518 3.54053 7.54502 3.58261 7.58703C3.62469 7.62911 3.67446 7.65011 3.73201 7.65011H5.05348C5.15091 7.65011 5.21727 7.59917 5.25272 7.49741C5.43863 7.05473 5.55591 6.79575 5.60466 6.72046C5.91452 6.21576 6.32624 5.81951 6.83981 5.53173C7.35343 5.24399 7.9068 5.10005 8.49999 5.10005C9.38992 5.10005 10.1624 5.40334 10.8177 6.00987L9.90112 6.92624C9.81723 7.01037 9.77503 7.11004 9.77503 7.22515C9.77503 7.34024 9.8172 7.43986 9.90112 7.52397C9.98535 7.6081 10.085 7.65013 10.2001 7.65013H13.1751C13.2903 7.65013 13.3899 7.6081 13.474 7.52397C13.558 7.43986 13.6 7.34027 13.6 7.22515V4.25004C13.6 4.13493 13.5583 4.03535 13.474 3.9512Z" fill="white"/>
<path d="M13.2215 9.35038H11.9465C11.849 9.35038 11.7826 9.40125 11.7473 9.5031C11.5615 9.94583 11.444 10.2047 11.3954 10.28C11.0855 10.7846 10.6737 11.181 10.1603 11.4687C9.64664 11.7565 9.09327 11.9003 8.50006 11.9003C8.07066 11.9003 7.65669 11.8207 7.2583 11.6614C6.85986 11.5019 6.50343 11.276 6.18915 10.9838L7.09895 10.0741C7.18303 9.99003 7.22511 9.89029 7.22511 9.77524C7.22511 9.66015 7.18303 9.56041 7.09895 9.47642C7.01482 9.39222 6.91524 9.3501 6.80013 9.3501H3.82507C3.70989 9.3501 3.61027 9.39222 3.52616 9.47642C3.44205 9.56044 3.40002 9.66018 3.40002 9.77527V12.7504C3.40002 12.8654 3.44205 12.9651 3.52618 13.0492C3.61036 13.1332 3.70998 13.1755 3.82509 13.1755C3.94018 13.1755 4.03976 13.1332 4.12391 13.0492L4.98054 12.1925C5.45426 12.6439 5.9933 12.9916 6.59761 13.235C7.20192 13.4786 7.82725 13.6002 8.47357 13.6002C9.68667 13.6002 10.7447 13.2317 11.6478 12.4946C12.5509 11.7575 13.1442 10.7957 13.4276 9.60921C13.4321 9.60038 13.4342 9.58486 13.4342 9.56281C13.4342 9.50517 13.4131 9.45554 13.371 9.41332C13.3289 9.37147 13.2791 9.35038 13.2215 9.35038Z" fill="white"/>
</svg>
