<svg width="21" height="21" viewBox="0 0 21 21" fill="none" xmlns="http://www.w3.org/2000/svg">
<path d="M19.5921 5.22938C18.6532 3.62077 17.3796 2.34712 15.7709 1.40821C14.1619 0.469339 12.4056 0 10.5003 0C8.59534 0 6.83842 0.469339 5.22974 1.40821C3.62098 2.34698 2.34733 3.62062 1.40836 5.22938C0.469341 6.83824 0 8.59515 0 10.5C0 12.4049 0.469485 14.1615 1.40821 15.7705C2.34713 17.3791 3.62078 18.6528 5.22956 19.5918C6.83842 20.5306 8.5952 21 10.5001 21C12.4051 21 14.162 20.5306 15.7709 19.5918C17.3795 18.6531 18.6531 17.3791 19.592 15.7705C20.5307 14.1617 21 12.4048 21 10.5C21 8.59497 20.5307 6.838 19.5921 5.22938ZM15.4493 12.9744C15.6225 13.1475 15.7092 13.3529 15.7092 13.59C15.7092 13.8358 15.6225 14.0455 15.4493 14.2186L14.219 15.4493C14.0459 15.6223 13.8362 15.7089 13.59 15.7089C13.353 15.7089 13.1477 15.6223 12.9748 15.4493L10.5002 12.9744L8.02548 15.4493C7.85232 15.6223 7.64727 15.7089 7.41028 15.7089C7.16414 15.7089 6.95453 15.6223 6.78133 15.4493L5.55078 14.2186C5.37762 14.0455 5.29104 13.8358 5.29104 13.59C5.29104 13.353 5.37767 13.1475 5.55078 12.9744L8.02548 10.5L5.55078 8.02526C5.37762 7.8523 5.29104 7.64705 5.29104 7.41006C5.29104 7.16392 5.37767 6.95431 5.55078 6.78111L6.78133 5.55076C6.95453 5.37759 7.16414 5.29101 7.41028 5.29101C7.64727 5.29101 7.85232 5.37764 8.02548 5.55076L10.5002 8.02526L12.9748 5.55076C13.1477 5.37759 13.353 5.29101 13.59 5.29101C13.8362 5.29101 14.0459 5.37764 14.219 5.55076L15.4493 6.78111C15.6225 6.95431 15.7092 7.16392 15.7092 7.41006C15.7092 7.647 15.6225 7.8523 15.4493 8.02526L12.9748 10.5L15.4493 12.9744Z" fill="#FF0000"/>
<path d="M10.5 19C15.1944 19 19 15.1944 19 10.5C19 5.80558 15.1944 2 10.5 2C5.80558 2 2 5.80558 2 10.5C2 15.1944 5.80558 19 10.5 19Z" fill="white"/>
<path d="M17.8603 6.23331C17.1002 4.9311 16.0692 3.90005 14.7669 3.13998C13.4644 2.37994 12.0426 2 10.5003 2C8.95813 2 7.53586 2.37994 6.2336 3.13998C4.93127 3.89994 3.90022 4.93098 3.1401 6.23331C2.37994 7.53572 2 8.95798 2 10.5C2 12.0421 2.38006 13.4641 3.13998 14.7666C3.90006 16.0688 4.93111 17.0999 6.23345 17.86C7.53586 18.62 8.95802 19 10.5001 19C12.0422 19 13.4645 18.62 14.7669 17.86C16.0691 17.1001 17.1001 16.0688 17.8602 14.7666C18.6201 13.4642 19 12.042 19 10.5C19 8.95783 18.6201 7.53552 17.8603 6.23331ZM14.5066 12.5031C14.6468 12.6432 14.717 12.8095 14.717 13.0014C14.717 13.2004 14.6468 13.3702 14.5066 13.5103L13.5106 14.5066C13.3705 14.6466 13.2007 14.7167 13.0014 14.7167C12.8096 14.7167 12.6434 14.6466 12.5034 14.5066L10.5001 12.5031L8.49682 14.5066C8.35664 14.6466 8.19065 14.7167 7.9988 14.7167C7.79954 14.7167 7.62986 14.6466 7.48965 14.5066L6.49349 13.5103C6.35331 13.3702 6.28322 13.2004 6.28322 13.0014C6.28322 12.8096 6.35335 12.6432 6.49349 12.5031L8.49682 10.5L6.49349 8.49664C6.35331 8.35662 6.28322 8.19047 6.28322 7.99862C6.28322 7.79936 6.35335 7.62968 6.49349 7.48947L7.48965 6.49347C7.62986 6.35329 7.79954 6.2832 7.9988 6.2832C8.19065 6.2832 8.35664 6.35333 8.49682 6.49347L10.5001 8.49664L12.5034 6.49347C12.6434 6.35329 12.8096 6.2832 13.0014 6.2832C13.2007 6.2832 13.3705 6.35333 13.5106 6.49347L14.5066 7.48947C14.6468 7.62968 14.717 7.79936 14.717 7.99862C14.717 8.19043 14.6468 8.35662 14.5066 8.49664L12.5034 10.5L14.5066 12.5031Z" fill="#FF0303"/>
<path d="M10.5 19C15.1944 19 19 15.1944 19 10.5C19 5.80558 15.1944 2 10.5 2C5.80558 2 2 5.80558 2 10.5C2 15.1944 5.80558 19 10.5 19Z" fill="#FF9213"/>
<path d="M15.474 5.9512C15.3899 5.86718 15.2903 5.82504 15.1751 5.82504C15.0601 5.82504 14.9605 5.86718 14.8763 5.9512L14.0131 6.80798C13.5394 6.36078 12.997 6.01428 12.3861 5.76863C11.7753 5.52296 11.1465 5.40015 10.5001 5.40015C9.28258 5.40015 8.22013 5.76865 7.31254 6.50583C6.40493 7.24292 5.8073 8.20462 5.51953 9.39118V9.43763C5.51953 9.49518 5.54053 9.54502 5.58261 9.58703C5.62469 9.62911 5.67446 9.65011 5.73201 9.65011H7.05348C7.15091 9.65011 7.21727 9.59917 7.25272 9.49741C7.43863 9.05473 7.55591 8.79575 7.60466 8.72046C7.91452 8.21576 8.32624 7.81951 8.83981 7.53173C9.35343 7.24399 9.9068 7.10005 10.5 7.10005C11.3899 7.10005 12.1624 7.40334 12.8177 8.00987L11.9011 8.92624C11.8172 9.01037 11.775 9.11004 11.775 9.22515C11.775 9.34024 11.8172 9.43986 11.9011 9.52397C11.9854 9.6081 12.085 9.65013 12.2001 9.65013H15.1751C15.2903 9.65013 15.3899 9.6081 15.474 9.52397C15.558 9.43986 15.6 9.34027 15.6 9.22515V6.25004C15.6 6.13493 15.5583 6.03535 15.474 5.9512Z" fill="white"/>
<path d="M15.2216 11.3504H13.9466C13.8491 11.3504 13.7827 11.4012 13.7474 11.5031C13.5616 11.9458 13.4441 12.2047 13.3955 12.28C13.0856 12.7846 12.6738 13.181 12.1604 13.4687C11.6468 13.7565 11.0934 13.9003 10.5002 13.9003C10.0708 13.9003 9.65682 13.8207 9.25843 13.6614C8.85999 13.5019 8.50356 13.276 8.18928 12.9838L9.09908 12.0741C9.18316 11.99 9.22524 11.8903 9.22524 11.7752C9.22524 11.6601 9.18316 11.5604 9.09908 11.4764C9.01495 11.3922 8.91537 11.3501 8.80026 11.3501H5.8252C5.71002 11.3501 5.6104 11.3922 5.52629 11.4764C5.44218 11.5604 5.40015 11.6602 5.40015 11.7753V14.7504C5.40015 14.8654 5.44218 14.9651 5.52631 15.0492C5.61049 15.1332 5.71011 15.1755 5.82522 15.1755C5.94031 15.1755 6.03989 15.1332 6.12404 15.0492L6.98067 14.1925C7.45439 14.6439 7.99343 14.9916 8.59774 15.235C9.20205 15.4786 9.82738 15.6002 10.4737 15.6002C11.6868 15.6002 12.7448 15.2317 13.6479 14.4946C14.551 13.7575 15.1443 12.7957 15.4277 11.6092C15.4322 11.6004 15.4343 11.5849 15.4343 11.5628C15.4343 11.5052 15.4132 11.4555 15.3711 11.4133C15.329 11.3715 15.2792 11.3504 15.2216 11.3504Z" fill="white"/>
<line x1="5.10221" y1="3.98258" x2="17.1022" y2="16.9826" stroke="#FF0000" stroke-width="3"/>
</svg>
