<svg width="22" height="21" viewBox="0 0 22 21" fill="none" xmlns="http://www.w3.org/2000/svg">
<path d="M7.32258 10.4001C7.32258 11.4085 6.49936 12.2259 5.48387 12.2259C4.46838 12.2259 3.64516 11.4085 3.64516 10.4001C3.64516 9.39183 4.46838 8.57442 5.48387 8.57442C6.49936 8.57442 7.32258 9.39183 7.32258 10.4001Z" fill="#E5E5E5"/>
<path d="M14.4092 18.9848C17.6255 17.6571 19.8871 14.5073 19.8871 10.8331C19.8871 5.95952 15.9082 2.00872 11 2.00872C6.09179 2.00872 2.1129 5.95952 2.1129 10.8331C2.1129 14.5073 4.37447 17.6571 7.59081 18.9848H7.27398V19.4001H7.01867C3.7606 17.9049 1.5 14.6311 1.5 10.8331C1.5 5.6234 5.7533 1.40015 11 1.40015C16.2467 1.40015 20.5 5.6234 20.5 10.8331C20.5 14.6311 18.2394 17.9049 14.9813 19.4001H14.662V18.9848H14.4092Z" fill="#E5E5E5"/>
<path d="M14.3098 19.4001C13.9996 18.0516 12.6738 16.9835 11 16.9835C9.3262 16.9835 8.0004 18.0516 7.6902 19.4001H7.06364C7.38036 17.6832 9.0222 16.375 11 16.375C12.9778 16.375 14.6196 17.6832 14.9364 19.4001H14.3098Z" fill="#E5E5E5"/>
<path d="M12.8387 4.92297C12.8387 5.93129 12.0155 6.74869 11 6.74869C9.98451 6.74869 9.16129 5.93129 9.16129 4.92297C9.16129 3.91465 9.98451 3.09724 11 3.09724C12.0155 3.09724 12.8387 3.91465 12.8387 4.92297Z" fill="#E5E5E5"/>
<path d="M16.8226 6.44441C16.8226 7.45273 15.9994 8.27013 14.9839 8.27013C13.9684 8.27013 13.1452 7.45273 13.1452 6.44441C13.1452 5.43609 13.9684 4.61868 14.9839 4.61868C15.9994 4.61868 16.8226 5.43609 16.8226 6.44441Z" fill="#E5E5E5"/>
<path d="M18.3548 10.4001C18.3548 11.4085 17.5316 12.2259 16.5161 12.2259C15.5006 12.2259 14.6774 11.4085 14.6774 10.4001C14.6774 9.39183 15.5006 8.57442 16.5161 8.57442C17.5316 8.57442 18.3548 9.39183 18.3548 10.4001Z" fill="#E5E5E5"/>
<path d="M8.85484 6.44441C8.85484 7.45273 8.03162 8.27013 7.01613 8.27013C6.00064 8.27013 5.17742 7.45273 5.17742 6.44441C5.17742 5.43609 6.00064 4.61868 7.01613 4.61868C8.03162 4.61868 8.85484 5.43609 8.85484 6.44441Z" fill="#E5E5E5"/>
<path d="M14.4103 18.2883C17.4069 16.9744 19.5 13.9814 19.5 10.5C19.5 5.80566 15.6945 2 11 2C6.30554 2 2.5 5.80566 2.5 10.5C2.5 13.9814 4.59314 16.9744 7.58972 18.2883C7.24304 18.8525 7.03235 19.509 7.00342 20.2126C3.18677 18.6404 0.5 14.884 0.5 10.5C0.5 4.70093 5.20105 0 11 0C16.799 0 21.5 4.70093 21.5 10.5C21.5 14.884 18.8132 18.6404 14.9966 20.2126C14.9677 19.509 14.757 18.8525 14.4103 18.2883Z" fill="#E5E5E5"/>
<path d="M9.08765 20.8003C9.03064 20.6145 9 20.417 9 20.2126C9 19.1082 9.89539 18.2126 11 18.2126C12.1046 18.2126 13 19.1082 13 20.2126C13 20.417 12.9694 20.6145 12.9124 20.8003C13.635 20.6736 14.3333 20.4761 15 20.2158V20.2126C15 18.0034 13.2091 16.2126 11 16.2126C8.79089 16.2126 7 18.0034 7 20.2126V20.2158C7.66675 20.4761 8.36499 20.6736 9.08765 20.8003Z" fill="#E5E5E5"/>
</svg>
