<svg width="20" height="20" viewBox="0 0 20 20" fill="none" xmlns="http://www.w3.org/2000/svg">
<path d="M15.95 10.78C15.98 10.53 16 10.27 16 10C16 9.73 15.98 9.47 15.94 9.22L17.63 7.9C17.78 7.78 17.82 7.56 17.73 7.39L16.13 4.62C16.03 4.44 15.82 4.38 15.64 4.44L13.65 5.24C13.23 4.92 12.79 4.66 12.3 4.46L12 2.34C11.97 2.14 11.8 2 11.6 2H8.40001C8.20001 2 8.04001 2.14 8.01001 2.34L7.71001 4.46C7.22001 4.66 6.77001 4.93 6.36001 5.24L4.37001 4.44C4.19001 4.37 3.98001 4.44 3.88001 4.62L2.28001 7.39C2.18001 7.57 2.22001 7.78 2.38001 7.9L4.07001 9.22C4.03001 9.47 4.00001 9.74 4.00001 10C4.00001 10.26 4.02001 10.53 4.06001 10.78L2.37001 12.1C2.22001 12.22 2.18001 12.44 2.27001 12.61L3.87001 15.38C3.97001 15.56 4.18001 15.62 4.36001 15.56L6.35001 14.76C6.77001 15.08 7.21001 15.34 7.70001 15.54L8.00001 17.66C8.04001 17.86 8.20001 18 8.40001 18H11.6C11.8 18 11.97 17.86 11.99 17.66L12.29 15.54C12.78 15.34 13.23 15.07 13.64 14.76L15.63 15.56C15.81 15.63 16.02 15.56 16.12 15.38L17.72 12.61C17.82 12.43 17.78 12.22 17.62 12.1L15.95 10.78ZM10 13C8.35001 13 7.00001 11.65 7.00001 10C7.00001 8.35 8.35001 7 10 7C11.65 7 13 8.35 13 10C13 11.65 11.65 13 10 13Z" fill="#E5E5E5"/>
</svg>
